<?xml version="1.0" encoding="iso-8859-1"?>
<!-- Generator: Adobe Illustrator 19.0.0, SVG Export Plug-In . SVG Version: 6.00 Build 0)  -->
<svg xmlns="http://www.w3.org/2000/svg" xmlns:xlink="http://www.w3.org/1999/xlink" version="1.1" id="Layer_1" x="0px" y="0px" viewBox="0 0 512 512" style="enable-background:new 0 0 512 512;" xml:space="preserve" width="512px" height="512px">
<g>
	<g>
		<path d="M491.318,353.025c-27.523,0-49.913-22.391-49.913-49.913V185.453C441.405,83.221,358.233,0.049,256,0.049    S70.595,83.221,70.595,185.453v117.659c0,27.523-22.391,49.913-49.913,49.913C9.26,353.025,0,362.285,0,373.708    s9.26,20.682,20.682,20.682h470.636c11.423,0,20.682-9.259,20.682-20.682S502.741,353.025,491.318,353.025z M97.072,353.025    c9.41-14.353,14.888-31.507,14.888-49.913V185.453c0-79.424,64.616-144.04,144.04-144.04s144.04,64.616,144.04,144.04v117.659    c0,18.407,5.478,35.561,14.887,49.913H97.072z" fill="#6e4f77"/>
	</g>
</g>
<g>
	<g>
		<path d="M307.087,449.943c-9.881-5.732-22.537-2.367-28.268,7.513c-7.299,12.584-23.474,16.882-36.058,9.582    c-3.967-2.301-7.281-5.615-9.582-9.582c-5.731-9.881-18.388-13.243-28.268-7.513c-9.88,5.731-13.243,18.388-7.512,28.268    c5.91,10.188,14.419,18.697,24.607,24.607c10.671,6.191,22.349,9.132,33.879,9.132c23.383,0,46.161-12.099,58.714-33.74    C320.33,468.331,316.968,455.674,307.087,449.943z" fill="#6e4f77"/>
	</g>
</g>
<g>
</g>
<g>
</g>
<g>
</g>
<g>
</g>
<g>
</g>
<g>
</g>
<g>
</g>
<g>
</g>
<g>
</g>
<g>
</g>
<g>
</g>
<g>
</g>
<g>
</g>
<g>
</g>
<g>
</g>
</svg>
