<?xml version="1.0" encoding="iso-8859-1"?>
<!-- Generator: Adobe Illustrator 19.0.0, SVG Export Plug-In . SVG Version: 6.00 Build 0)  -->
<svg xmlns="http://www.w3.org/2000/svg" xmlns:xlink="http://www.w3.org/1999/xlink" version="1.1" id="Layer_1" x="0px" y="0px" viewBox="0 0 511.999 511.999" style="enable-background:new 0 0 511.999 511.999;" xml:space="preserve" width="512px" height="512px">
<g>
	<g>
		<path d="M444.253,47.065H67.747c-37.355,0-67.745,30.391-67.745,67.745v282.379c0,37.355,30.39,67.745,67.745,67.745h376.506    c37.355,0,67.745-30.391,67.745-67.745V114.81C511.998,77.455,481.608,47.065,444.253,47.065z M470.634,397.189    c0,14.546-11.835,26.381-26.381,26.381H67.747c-14.546,0-26.381-11.835-26.381-26.381V114.81    c0-14.546,11.835-26.381,26.381-26.381h376.506c14.546,0,26.381,11.835,26.381,26.381V397.189z" fill="#6e4f77"/>
	</g>
</g>
<g>
	<g>
		<path d="M508.259,102.95c-6.549-9.357-19.443-11.633-28.804-5.083L255.999,254.284L32.544,97.866    c-9.357-6.551-22.253-4.274-28.803,5.083s-4.274,22.253,5.083,28.803L244.14,296.474c3.561,2.493,7.71,3.738,11.86,3.738    c4.149,0,8.299-1.246,11.86-3.738l235.316-164.721C512.533,125.203,514.809,112.307,508.259,102.95z" fill="#6e4f77"/>
	</g>
</g>
<g>
</g>
<g>
</g>
<g>
</g>
<g>
</g>
<g>
</g>
<g>
</g>
<g>
</g>
<g>
</g>
<g>
</g>
<g>
</g>
<g>
</g>
<g>
</g>
<g>
</g>
<g>
</g>
<g>
</g>
</svg>
