<?xml version="1.0" encoding="iso-8859-1"?>
<!-- Generator: Adobe Illustrator 19.0.0, SVG Export Plug-In . SVG Version: 6.00 Build 0)  -->
<svg xmlns="http://www.w3.org/2000/svg" xmlns:xlink="http://www.w3.org/1999/xlink" version="1.1" id="Layer_1" x="0px" y="0px" viewBox="0 0 512 512" style="enable-background:new 0 0 512 512;" xml:space="preserve" width="512px" height="512px">
<g>
	<g>
		<path d="M370.068,63.494C329.123,22.549,274.686,0,216.781,0S104.438,22.549,63.494,63.494C22.549,104.438,0,158.876,0,216.78    c0,57.905,22.549,112.343,63.494,153.287c40.944,40.944,95.383,63.494,153.287,63.494s112.342-22.55,153.287-63.494    c40.944-40.944,63.494-95.382,63.494-153.287C433.561,158.876,411.012,104.438,370.068,63.494z M216.78,392.196    c-96.725,0-175.416-78.691-175.416-175.416S120.056,41.364,216.781,41.364s175.415,78.691,175.415,175.416    S313.505,392.196,216.78,392.196z" fill="#FFFFFF"/>
	</g>
</g>
<g>
	<g>
		<path d="M505.943,476.693L369.981,340.732c-8.077-8.077-21.172-8.077-29.249,0c-8.076,8.077-8.076,21.172,0,29.249    l135.961,135.961c4.038,4.039,9.332,6.058,14.625,6.058c5.293,0,10.587-2.019,14.625-6.058    C514.019,497.865,514.019,484.77,505.943,476.693z" fill="#FFFFFF"/>
	</g>
</g>
<g>
</g>
<g>
</g>
<g>
</g>
<g>
</g>
<g>
</g>
<g>
</g>
<g>
</g>
<g>
</g>
<g>
</g>
<g>
</g>
<g>
</g>
<g>
</g>
<g>
</g>
<g>
</g>
<g>
</g>
</svg>
